<?xml version="1.0" encoding="utf-8"?>
<!-- Generator: Adobe Illustrator 25.4.1, SVG Export Plug-In . SVG Version: 6.00 Build 0)  -->
<svg version="1.1" id="レイヤー_1" xmlns="http://www.w3.org/2000/svg" xmlns:xlink="http://www.w3.org/1999/xlink" x="0px"
	 y="0px" viewBox="0 0 1941.6 483" style="enable-background:new 0 0 1941.6 483;" xml:space="preserve">
	<style type="text/css">
		.st0{font-family:'Arial-Black';}
		.st1{font-size:81.0481px;}
	</style>
	<g>
		<path d="M226.1,26c26.1,0,51.4,5.1,75.2,15.2c23,9.7,43.7,23.7,61.4,41.4c17.7,17.7,31.7,38.4,41.4,61.4
			c10.1,23.8,15.2,49.1,15.2,75.2s-5.1,51.4-15.2,75.2c-9.7,23-23.7,43.7-41.4,61.4c-17.7,17.7-38.4,31.7-61.4,41.4
			c-23.8,10.1-49.1,15.2-75.2,15.2s-51.4-5.1-75.2-15.2c-23-9.7-43.7-23.7-61.4-41.4c-17.7-17.7-31.7-38.4-41.4-61.4
			c-10.1-23.8-15.2-49.1-15.2-75.2S38,167.8,48.1,144c9.7-23,23.7-43.7,41.4-61.4c17.7-17.8,38.4-31.7,61.4-41.4
			C174.7,31.1,200,26,226.1,26 M226.1,11c-115,0-208.2,93.2-208.2,208.2s93.2,208.2,208.2,208.2s208.2-93.2,208.2-208.2
			S341.1,11,226.1,11L226.1,11z"/>
	</g>
	<path d="M141.7,57.8c5.6-0.7,11.3-1.5,14.7,1.8c3.7,3.7,1.6,9.6,4.6,11c4.3,2,12.6-8.1,14.7-6.4c1.1,0.9-1.3,3.8,0,5.5
		c2.7,3.5,18.4-1.3,22.9-1.8c0.3,0,1-0.1,1.8,0c0.7,0.1,1.8,0.2,2.8,0.9c1.5,1.1,1.8,3.1,1.8,3.7c0.2,1.4-0.3,1.6,0,2.8
		c0.4,1.6,1.6,2.5,1.8,2.8c3.4,2.7,9.3-1.3,11,0.9c1.1,1.3-0.3,3.8,0.9,4.6c0.5,0.3,1.2,0.2,1.8,0c4.6-1.3,6.8-1.9,7.3-2.8
		c1.7-3-3.1-8-1.8-9.2c0.9-0.8,3.4,0.7,3.7,0.9c4.1,2.5,3.3,6.3,7.3,9.2c0.9,0.6,2.4,1.7,4.6,1.8c3.8,0.2,5.6-2.8,8.3-1.8
		c2,0.7,1.9,2.6,3.7,2.8c1.4,0.1,1.7-1,4.6-1.8c1.6-0.5,1.6-0.2,2.8-0.7c1.7-0.7,2.1-1.4,3.6-1.9c1.1-0.3,2-0.2,2.7-0.2
		c4,0.3,4.4-0.3,8.3,0c4.1,0.3,11,1.4,11,2.8c0,0.4-0.6,1-3.7,1.8c-2.3-0.5-4.6,0.3-5.5,1.8c-1.3,2.3,0.8,5.3,0.9,5.5
		c1.3,1.7,2.7,1.7,2.8,2.8c0.1,1.6-3,2-3.7,4.6c-0.5,1.8,0.7,2.7,0,3.7c-0.9,1.2-3.1-0.5-5.5,0.9c-1.1,0.7-1.9,1.7-2.3,2.3
		c-0.7,1-0.9,1.6-0.9,1.8c-0.1,0.5-0.1,1,0,1.8c0.1,0.6,0.1,1.4,0.5,2.3c0.1,0.3,0.2,0.5,0.6,1.3c0.5,1,0.9,1.4,1.3,2.4
		c0.5,1.7-0.5,2.9-0.9,6.4c-0.4,3.3,0.5,4.2-0.5,6.9c-0.4,1.1-0.9,2.6-1.8,2.8c-1.4,0.2-2.8-2.8-4.6-6.4c-1.7-3.6-2.6-5.4-2.3-7.8
		c0.2-1.9,1-3.4,1.4-4.1c1-1.9,1.8-2.4,2.8-3.7c2.8-3.8,2.5-9,1.8-9.2c-0.4-0.1-1,1.7-3.2,3.2c-0.7,0.4-1.1,0.6-1.4,0.5
		c-0.8-0.4-0.2-2.2-0.9-2.8c-1-0.7-4.4,0.9-5.5,3.7c-1,2.5,0.3,4.6-0.9,5.5c-0.8,0.6-2,0.2-2.8,0c-2.1-0.6-2.4-1.9-3.7-1.8
		c-1.1,0-1.1,0.9-2.8,1.8c-1.4,0.7-2.8,0.8-5.5,0.9c-2.9,0.1-2.8-0.2-3.7,0c-2.5,0.7-2.7,3.1-5.5,6.4c-3.3,3.9-6.9,5.1-6.4,6.4
		c0.2,0.7,1.2,0.4,2.8,1.8c1.2,1.1,1.2,1.7,1.8,1.8c1.5,0.2,2.6-3,3.7-2.8c1.1,0.2,0.7,3.3,1.8,3.7c1.4,0.4,3.5-4.1,4.6-3.7
		c0.9,0.3-0.5,3.4,0.9,7.3c1,2.8,1.6,2.5,1.8,4.6c0.3,2.6-1.3,5-0.9,8.3c0.1,0.6,0.2,1.5,0,2.8c-0.1,0.3-0.3,1.8-0.9,1.8
		c-0.4,0-0.8-0.7-0.9-0.9c-1-2,0.2-3.5,0-6.4c-0.1-1.6-0.5-1.1-0.9-3.7c-0.6-3.5,0-5-0.9-5.5c-0.8-0.5-2.6,0.2-3.2,1.4
		c-0.6,1.2,0.4,2.1,0.5,4.1c0,1.3-0.9,3-2.8,6.4c-1.5,2.6-2.2,4-3.2,5c-1.9,2-2.5,1.5-4.1,3.2c-3,3.2-2.3,6.4-4.1,6.9
		c-2,0.5-3.4-3.2-5.5-2.8c-1.6,0.3-1.3,2.5-4.1,6c-1.4,1.7-3.1,3.2-4.1,4.1c-2.6,2.3-3.7,2.7-3.7,3.7c0.1,1.6,3,1.6,4.1,4.1
		c0.6,1.5,0.3,3-0.5,6c-0.4,1.6-0.6,2.5-1.4,3.2c-1.2,1.2-3.5,1.8-4.6,0.9c-1-0.8-0.8-2.6-0.5-5c0.3-2.7,0.9-3.2,0.5-4.1
		c-0.8-1.7-3.3-1.3-3.7-2.8c-0.4-1.3,1.3-2.1,0.9-3.7c-0.3-1.2-1.6-1.8-1.8-1.8c-0.7-0.3-1.4-0.3-2.8,0c-3.2,0.8-4.5,2.7-5,2.3
		c-0.8-0.6,2.3-5.1,1.4-6c-0.8-0.8-4.3,1.8-5.5,2.8c-1.2,0.9-1.6,1.4-1.8,1.8c-0.8,1.4-1,3.5,0,4.6c0.5,0.6,1.9,0.7,4.6,0.9
		c2,0.2,3.3,0.2,3.7,0.9c0.2,0.4,0,0.8,0,0.9c-0.4,1-1.8,1-4.6,1.8c-1.9,0.6-3.1,1.2-3.8,2c-0.2,0.2-0.7,0.8-0.8,1.6
		c-0.1,0.4,0,0.8,0,0.9c0.1,1,0.8,2.2,1.8,2.8c1.5,0.7,2.8-0.6,3.7,0s0.3,2.4,0,4.6c-1,6.3,0.8,7.7-0.9,11.9c-0.8,2-1.7,3-2.8,3.7
		s-1.7,0.5-2.8,0.9c-2.9,1.1-2.5,4.5-5.5,8.3c-1.1,1.4-3.2,3.9-6.4,4.6c-2.9,0.6-5-0.7-7.3,0.9c-1.1,0.8-0.8,1.2-1.8,1.8
		c-3.2,2.1-7.3-1.2-8.7,0.5c-0.9,1.1-0.6,4.1-0.5,5c0,0.2,0.1,0.5,0,0.9c-0.2,1.1-1.2,2.7-2.8,2.8c-1.3,0.1-2.7-0.9-2.8-1.8
		c-0.1-0.6,0.3-0.8,1.4-2.3c0.8-1.2,1.2-1.7,1.4-2.3c0.4-1.3,0.4-3.4-0.9-4.6c-1-0.9-2.3-0.9-2.8-0.9c-1.4,0-2.3,0.6-2.8,0.9
		c-0.7,0.4-0.9,0.8-1.8,1.8c-1.2,1.4-1.8,1.8-2.3,2.3c-1.6,1.8-2,4.7-1.8,6.4c0.4,4.4,4.4,4.5,7.3,11c1.7,3.7,1.5,6,1.4,6.9
		c-0.1,0.8-0.5,3.8-2.8,5.5c-1.3,1-1.8,0.4-4.1,1.4c-3.7,1.5-4.5,3.6-6,3.2c-0.9-0.3-1-1.3-2.3-5c-1.6-4.6-2.4-7-4.1-8.7
		c-0.7-0.8-1.4-1.2-2.8-2.8c-1.2-1.4-1.4-1.9-1.8-1.8c-1.1,0-1.9,3.1-2.8,6.4c-0.5,2.1-0.8,3.2-0.9,4.6c-0.1,0.8-0.2,3.7,0.9,7.3
		c2,6.1,6.3,6.5,6.9,11.5c0.1,1.1,0.1,2.1,0.5,4.1c0.6,3.1,1.4,4.2,0.9,4.6c-0.7,0.7-4-0.9-5.5-3.7c-0.6-1.1-0.3-1.3-0.9-3.7
		c-0.9-3.6-1.9-3.8-2.8-7.3c-0.6-2.4-0.3-2.6-0.9-4.6c-0.9-2.9-2-3.8-2.8-5.5c-1.3-3,0-4.8,0.9-11c0.9-5.8,1.8-11.9-0.9-13.8
		c-2.3-1.6-5.5,1-6.9-0.5c-1.6-1.8,2.5-5.6,2.3-11.5c-0.2-5.2-3.5-9.8-7.3-11.9c-3.3-1.8-7.5-2.2-8.3-0.9c-0.5,0.8,0.6,1.8,0,2.8
		c-0.5,0.7-1.4,0.6-3.7,0.9c-2.5,0.3-3.8,0.5-4.6,0.9c-2,1.1-1.5,2.6-3.7,3.7c-0.8,0.4-1,0.2-2.8,0.9c-2.1,0.8-2.5,1.4-2.8,1.8
		c-0.3,0.7-0.1,1.2,0,1.8c0.4,2.5-1.5,3.6-2.8,7.3c-0.8,2.4-0.1,2.2-0.9,4.6c-0.7,2.2-2.4,5.7-3.7,5.5c-1.5-0.2-1.8-5.3-1.8-6.4
		c-0.3-4.2,0.5-7.1,0.9-9.2C69,207,63,202.6,67.1,196c1.1-1.7,3-3.8,2.3-6c-0.5-1.5-1.8-1.4-2.8-2.8c-2.7-3.6,3.5-9,1.8-15.6
		c-1-3.8-4.1-6.3-5.5-7.3c-3.2-2.5-5.3-2.2-7.3-3.7c-1.5-1.1-5.1-4.7-3.2-17.9c2.1-14.7,8.6-28.2,16.5-39.4
		C87.8,76.4,97.3,63,112,59.3C120.9,57.5,121.1,60.3,141.7,57.8z"/>
	<path d="M290.8,49.1c-0.4,0.7-1.5,2.3-1.8,4.6c-0.2,1.1-0.3,1.9,0,2.8c0.8,2.3,3.8,2.8,3.7,3.7c-0.1,0.3-0.4,0.3-1.8,0.9
		c-2.1,0.8-3.2,1.3-3.7,1.8c-0.8,1-0.1,1.6-0.9,2.8c-0.7,1-1.9,1.3-3.7,1.8c-1.8,0.5-2.6,0.5-2.8,0.9c-0.2,0.7,1.6,1.7,1.8,1.8
		c1.1,0.7,1.5,0.5,1.8,0.9c0.9,1.1-0.6,3.1,0,3.7c0.5,0.5,1.7-1,3.7-0.9c1.2,0.1,1.2,0.7,2.8,0.9c2.1,0.4,3.2-0.6,3.7,0
		c0.4,0.5-0.2,1.9-0.9,2.8c-1.2,1.4-2.7,1.2-2.8,1.8c-0.1,0.8,2.1,2.4,3.7,1.8c1.3-0.5,1.2-2.1,2.8-2.8c0.7-0.3,1.9-0.5,2.8,0
		c1.9,1,0.7,4.1,2.8,7.3c0.4,0.6,1.2,1.9,2.8,2.8c2.8,1.5,4.9-0.2,10.1,0.9c1.5,0.3,2.2,0.5,2.8,0.9c1.2,1,1.5,2.6,0.9,11.9
		c-0.3,5.2-0.5,5.7-0.9,6.4c-1.3,2.3-2.5,6.9-0.9,4.6c3-4.5,3.8-4.4,4.6-6.4c0.3-0.9,0.3-1.4,0-7.3c-0.5-8.1-0.5-8.4-0.9-9.2
		c-2-3.6-5.9-4.5-5.5-6.4c0.2-1.1,1.7-1.3,1.8-2.8c0.1-1.2-0.9-1.5-0.9-2.8c0-1.6,1.6-2.8,2.8-3.7c0.6-0.5,2-1.5,3.7-1.8
		c3.8-0.7,5.3,3,10.1,3.7c3.4,0.5,6.3-0.9,8.3-1.8c1.8-0.9,6.8-3.2,7.3-6.4c1.1-6.2-11-12.3-33.9-23.8c-6.5-3.3-13.5-6.5-17.4-3.7
		C296,41,296,41,290.8,49.1z"/>
	<path d="M240.3,152.7c-0.7,0.3,0.2,2.1-0.9,3.7c-0.6,0.9-1.2,0.7-1.8,1.8c-0.5,0.9-0.4,1.3-0.9,1.8c-0.8,0.7-1.8,0.5-1.8,0.9
		c0,0.2,0.3,0.3,0.9,0.9c0.7,0.7,0.7,0.9,0.9,0.9c0.7,0,0.6-3.3,1.8-3.7c1.1-0.3,2.2,2.2,3.7,1.8c0.7-0.2,0.6-0.8,1.8-1.8
		c1.5-1.3,2.7-1.2,2.8-1.8c0-0.6-1.1-0.7-2.8-1.8C241.6,153.9,240.9,152.4,240.3,152.7z"/>
	<path d="M236.6,166.5c-0.1,1.2-0.7,1.5-0.9,2.8c-0.1,0.8,0,1.3,0,1.8c0.1,2-0.8,5.2-2.8,6.4c-1.6,1-2.5-0.3-4.6,0.9
		c-0.6,0.3-1.9,1.2-2.8,2.8c-0.6,1.1-0.4,1.4-0.9,1.8c-1.1,0.9-2.5-0.7-4.6,0c-0.9,0.3-0.9,0.7-1.8,0.9c-1.4,0.3-2-0.5-2.8,0
		c-0.6,0.4-0.9,1.3-0.9,1.8c0,0.2,0,0.4,0,0.9c0,0.7-0.1,0.9,0,0.9c0.3,0.2,1.1-1.5,2.8-1.8c0.8-0.2,0.8,0.2,1.8,0
		c1.6-0.2,2.1-1.2,2.8-0.9c0.4,0.2,0.4,0.7,0.9,1.8c0.6,1.3,1.1,2.6,1.8,2.8c1.1,0.2,1.3-2.6,3.7-3.7c1.5-0.7,2.4,0.1,3.7-0.9
		c1-0.7,0.9-1.4,1.8-1.8c1.2-0.5,1.8,0.4,2.8,0c1.4-0.6,1.7-3.2,1.8-4.6c0.2-2.1-0.3-2.1,0-3.7c0.5-2.7,2-2.8,1.8-4.6
		c-0.1-0.7-1-2-2.8-4.6c-0.3-0.4-0.7-1-0.9-0.9C236.4,164.7,236.7,165.4,236.6,166.5z"/>
	<path d="M220.1,186.6c-0.5-0.1-0.7,0.8-1.8,1.8c-1.4,1.2-2.3,0.9-2.8,1.8c-0.5,1,0.2,2.6,0.9,2.8c0.7,0.1,0.9-1.1,2.8-2.8
		c1.1-0.9,1.7-1.1,1.8-1.8C221.2,187.7,220.7,186.7,220.1,186.6z"/>
	<path d="M211.8,188c-0.5,0.1-0.4,1.9-1.3,2.3c-0.6,0.3-1.3-0.1-1.3,0c0,0.2,1.7,0.5,2,1.6s-1,2.1-0.7,3.1c0.2,0.6,0.8,0.9,1.3,0.8
		c0.8-0.2,1.1-1.5,1.3-2.3c0.4-1.5,0.1-2.7,0-3.1C212.8,189.4,212.2,187.9,211.8,188z"/>
	<path d="M183.4,214.1c-0.7-0.1-1,1.1-2.8,2.8c-1.7,1.7-2.8,2-2.8,2.8c0.1,0.8,1.3,0.7,1.8,1.8c0.6,1.2-0.3,2.6,0,2.8
		s1.3-0.7,1.8-1.8c1-2-0.1-3.2,0.9-4.6c0.7-1,1.7-0.9,1.8-1.8C184.5,215.2,184,214.3,183.4,214.1z"/>
	<path d="M178.9,236.2c-0.6,0.5,0,1.5,0,3.7c0,1.1,0,3.2-0.9,3.7c-0.6,0.3-1.1-0.4-1.8,0c-0.6,0.3-1,1.1-0.9,1.8
		c0.1,1,0.9,1.2,1.8,2.8c0.5,0.9,1.1,1.8,0.9,2.8c-0.2,1.6-2,2.4-1.8,2.8c0.2,0.3,1.1-0.4,1.8,0c1,0.6,0.8,2.8,0.9,2.8
		c0.1,0,0-1.9,0.9-3.7c0.3-0.6,0.9-1.7,1.8-1.8c0.5-0.1,1,0.3,1.8,0.9c0.6,0.4,1.3,0.9,1.8,1.8c0.7,1.1,0.6,1.8,0.9,1.8
		c0.4,0,1.3-1.5,0.9-2.8c-0.3-1.1-1.2-1.1-2.8-2.8c-1-1-1.4-2-1.8-2.8c-0.7-1.4-1.5-2.9-0.9-3.7c0.4-0.6,1.2-0.2,1.8-0.9
		c0.8-0.9,0.3-2.5,0-3.7c-0.2-0.7-0.4-1.3-0.9-1.8c-0.6-0.6-1.4-0.8-1.8-0.9C179.9,236,179.3,235.8,178.9,236.2z"/>
	<path d="M189.9,256.3c-0.2,0.2-0.1,0.6,0,0.9c0.3,0.5,0.7,0.4,0.9,0.9c0.1,0.3,0.1,0.6,0,0.9c-0.4,0.7-1.5,0.3-1.8,0.9
		s0.7,1.2,0.9,2.8c0.2,1.1-0.2,1.8,0,1.8c0.1,0,0.3,0,1.8-3.7c1.1-2.5,1.3-3.2,0.9-3.7c-0.3-0.5-1.1-0.7-1.8-0.9
		C190.1,256.2,190,256.3,189.9,256.3z"/>
	<path d="M183.4,260c-0.8-0.4-1.7,0-1.8,0c-0.4,0.2-1,0.6-0.9,0.9c0.1,0.4,0.8,0.2,1.8,0.9c0.3,0.2,0.7,0.5,0.9,0.9
		c0.3,0.5,0.3,1.3,0,1.8c-0.3,0.6-1,0.8-0.9,0.9c0,0.1,0.4-0.1,0.9,0c1,0.1,1.3,1,1.8,0.9c0.6-0.1,0.8-1.3,0.9-1.8
		c0.1-0.6,0-0.8,0-0.9c-0.2-0.5-0.6-0.7-0.9-0.9C184,261.8,184.5,260.6,183.4,260z"/>
	<path d="M192.6,266.4c-0.3,0.1,0.5,1.4,0,1.8c-0.4,0.3-1-0.3-1.8,0c-0.4,0.2-0.3,0.4-0.9,0.9c-0.4,0.4-1.2,1.1-1.8,0.9
		c-0.1,0-0.1,0-0.2-0.1c-0.5-0.2-0.5-0.6-0.7-0.8c-0.3-0.3-0.7,0-1.8,0s-1.4-0.3-1.8,0c-0.4,0.2-0.3,0.4-0.9,0.9
		c-0.1,0.1-0.3,0.3-0.7,0.7c-0.1,0.1-0.2,0.2-0.2,0.3c0.1,0.1,0.5-0.2,0.9,0c0.5,0.2,0.5,0.8,0.9,0.9c0.1,0,0.2-0.1,0.3-0.1
		c0.3,0,0.6,0.1,1.5,0.1c1.8,0,2.4-0.4,2.8,0c0.1,0.2,0,0.2,0,1.8c0,0.1,0,0.1,0,0.9c0,0.9,0,0.9,0,0.9c0,0.2,0.1,1.3,0.9,1.8
		c0.4,0.2,0.6-0.1,1.8,0c0.7,0,0.8,0.1,0.9,0c0.5-0.4-0.5-1.6,0-2.8c0-0.1,0.3-0.7,0.9-0.9c0.8-0.3,1.4,0.3,1.8,0c0.4-0.3,0-1,0-2.8
		c0,0,0-0.3,0-0.9c0-0.9,0-0.9,0-0.9C194.4,268,192.9,266.3,192.6,266.4z"/>
	<path d="M166,271c-0.5-0.4-1.3-0.2-1.8,0c-1,0.5-1,1.4-1.8,2.8c-0.9,1.5-2.2,2.4-2.8,2.8c-2.1,1.4-3,0.6-4.6,1.8
		c-1.8,1.5-1.3,3.1-2.8,3.7c-1.8,0.7-3.9-1.6-4.6-0.9c-0.5,0.5,0.6,1.7,0,2.8c-0.4,0.7-1.4,0.9-1.8,0.9c-0.9,0.1-2.1-0.1-2.8-0.9
		s-0.5-1.7-0.9-1.8c-0.5-0.1-1.4,0.8-1.8,1.8c-0.5,1.2,0.2,1.5,0.9,5.5c0.1,0.5,0.3,1.6,0.9,1.8c0.3,0.1,0.6-0.1,0.9,0
		c0.7,0.2,0.8,1.4,0.9,1.8c0.1,0.4,0,0.5,0,1.8c0,1.2,0,1.1,0,1.8c0,1.4-0.2,1.7,0,1.8c0.6,0.4,2.3-2.2,3.7-1.8
		c0.7,0.2,0.6,0.9,1.8,1.8c0.3,0.2,0.9,0.7,1.8,0.9c1.3,0.3,1.6-0.2,2.8,0c1,0.2,2.1,0.9,2.8,1.8c0.6,0.9,0.3,1.5,0.9,1.8
		c0.5,0.4,1,0.1,2.8,0c1.5,0,1.5,0.2,1.8,0c1.6-0.9-0.7-6.3,0.9-7.3c0.9-0.6,2,0.6,2.8,0c1.1-1-1.1-4.5,0-5.5c0.9-0.8,3.1,0.7,3.7,0
		c0.4-0.6-0.7-1.8-1.8-4.6c-0.9-2.3-1.3-3.4-0.9-4.6c0.7-2,3.6-2,3.7-3.7c0-0.7-0.4-1.4-0.9-1.8c-0.6-0.4-1-0.3-1.8-0.9
		c-0.2-0.1-0.6-0.4-0.9-0.9C166.1,272.6,166.7,271.5,166,271z"/>
	<path d="M104.6,261.8c0.2-0.3,0.5-0.9,0.9-0.9c0.7,0.1,3.1,2.4,3.7,2.8c0.7,0.5,2.1,3,2.8,3.7c1,1.1,2.6,3.7,3.7,4.6
		c1.2,0.9,0.8,2.1,1.8,2.8c0.8,0.5,1.4,0.1,2.8,0c2.8-0.2,6.1,1.1,6.4,2.8c0.1,0.6-0.3,0.9,0,1.8c0.3,1,0.9,1.1,0.9,1.8
		c0,0.6-0.4,1.1-0.9,1.8c-0.9,1.2-1.4,1-1.8,1.8s-0.6,2.1,0,2.8c0.5,0.5,0.9,0.2,1.8,0.9c0.1,0.1,0.1,0.1,0.9,0.9
		c0.6,0.6,0.9,0.9,0.9,0.9c0.7,0.5,1.7,0.9,2.8,0.9c0.5,0,0.6-0.1,0.9,0c0.5,0.2,0.5,0.8,0.9,1.8c0.6,1.3,1,1.3,0.9,1.8
		c-0.1,0.8-1.3,0.7-1.8,1.8c-0.3,0.6,0,0.8,0,2.8c0,2.1-0.3,2.1,0,2.8c0.3,0.7,0.7,0.5,2.7,2.1c0.3,0.3,0.6,0.5,1,0.6
		c0.7,0.2,1.1-0.1,1.8,0s1.1,0.4,1.8,0.9c1,0.7,1.1,1.1,1.8,1.8c0.6,0.5,2,1.9,3.7,1.8c1.4-0.1,1.6-1.1,2.8-0.9
		c1.1,0.1,1.2,1,2.8,1.8c0.9,0.5,1.2,0.5,2.8,0.9c1,0.3,0.9,0.3,4.6,1.8c2.5,1,4.9,2,4.9,2s-0.1,0-0.3-0.1c0,0,3.1,0.4,6.4,0.9
		c1.8,0.3,2.6,0.4,2.8,0.9c0.2,0.6-0.3,1.4-0.9,1.8c-0.7,0.5-1.7,0.5-3.7,0c-3-0.7-5.3-1.7-5.5-1.8c-2.5-1.1-3-1.7-4.6-1.8
		c-1.3-0.1-1.7,0.4-2.8,0c-1.4-0.5-1.4-1.4-2.8-1.8c-0.9-0.3-0.9,0.1-2.8,0c-1.1-0.1-2.5-0.2-2.8-0.9c-0.2-0.4,0.1-0.6,0-0.9
		c-0.3-0.9-2.4-1-3.7-0.9c-1.4,0.1-2,0.4-2.8,0c-0.5-0.3-0.3-0.5-0.9-0.9c-1-0.7-1.7-0.3-2.8-0.9c-0.4-0.3-0.6-0.6-0.9-0.9
		c-1.4-1.8-3.1-4-3.7-4.6c-1.9-2.3-2.4-1.2-4.6-3.7c-1.7-1.9-5.2-3.9-5.5-4.6c-0.3-0.6,0.2-1,0-1.8c-0.3-1.4-2.2-1.3-2.8-2.8
		c-0.4-1.1-1.5-3.6-1.8-4.6c-0.3-0.7,0.1-0.8,0-1.8c-0.2-1.2-0.9-2.6-1.8-2.8c-0.4-0.1-0.7,0.2-0.9,0c-0.3-0.3-0.1-1,0-1.8
		c0-0.3,0.2-2.6-0.9-3.7c-0.7-0.7-1.4-0.3-1.8-0.9c-0.5-0.8-1.1-3.4-1.8-4.6c-0.4-0.7-0.3-1.1-0.9-1.8c-0.4-0.5-0.5-0.4-0.9-0.9
		c-0.7-0.9-0.4-1.3-0.9-1.8c-0.7-0.7-1.3-0.3-1.8-0.9C104,263.9,104.1,262.6,104.6,261.8z"/>
	<path d="M172.4,296.7c-0.5,1,0.4,1.7,0,2.8c-0.4,1-1.7,0.9-1.8,1.8c-0.2,0.9,0.8,1.8,0.9,1.8c0.8,0.7,1.4,0.4,1.8,0.9
		c0.3,0.4,0.2,0.8,0,2.8c-0.2,1.8,0.1,1.4,0,2.5c0,0.6-0.1,1.1,0,1.1c0.1,0.1,0.3-0.3,0.9-0.9c0.6-0.6,0.7-0.6,0.9-0.9s0-0.6,0-1.8
		c-0.1-2.6-0.3-3,0-3.7c0.4-1,1.3-2,1.8-1.8s-0.1,1.6,0.9,2.8c0.4,0.5,0.7,0.4,0.9,0.9c0.3,0.7-0.3,1.1,0,1.8c0,0.1,0.3,0.7,0.9,0.9
		c0.4,0.1,0.6-0.1,0.9,0c0.7,0.3,0.6,1.8,0.9,1.8c0.3,0,0.7-1,0.9-1.8c0.2-1,0-1.7,0-1.8c-0.1-0.3-0.2-0.9-0.9-1.8
		c-1.3-1.8-2.6-1.7-2.8-2.8c-0.1-0.7,0.4-1.5,0.9-1.8c1.3-1,3.1,0,3.7-0.9c0.2-0.3,0.2-0.7,0-0.9c-0.5-0.7-2.5-0.1-2.8,0
		c-1,0.3-1,0.6-1.8,0.9c-0.2,0.1-2.6,1-3.7,0c-0.9-0.8-0.2-2.4-0.9-2.8C173.8,295.5,172.8,296,172.4,296.7z"/>
	<path d="M215.5,298.5c0.6,0.1,1,0.4,1.8,0.9c0.4,0.3,1.2,0.9,1.8,1.8c0.6,1,0.4,1.3,0.9,2.8c0.5,1.4,0.9,2.5,1.8,2.8
		c1.1,0.3,2.4-0.8,3.7-1.8c1-0.9,1.1-1.2,1.8-1.8c0.6-0.5,2.5-2.1,4.6-1.8c2.1,0.3,2.1,2.2,4.6,2.8c1.6,0.3,1.9-0.4,3.7,0
		s2,1.2,3.7,1.8c2.3,0.8,2.9-0.5,5.5,0c1.8,0.3,3.4,1.3,6.4,3.7c0.4,0.3,1.4,1,2.8,1.8c2.6,1.7,3.8,2.3,4.6,1.8c0,0,0.3-0.3,0.9-0.9
		c0.9-0.9,0.8-0.9,0.9-0.9c0.8-0.5,1.5,0.2,2.8,0c0.8-0.1,0.8-0.4,1.8-0.9c1.8-0.9,2.1-0.2,3.7-0.9c1.2-0.5,1.1-0.9,3.7-2.8
		c1.4-1,1.7-1,1.8-0.9c0.4,0.3,0.1,1.8-0.9,2.8c-0.4,0.4-0.6,0.4-1.8,0.9c-1.4,0.6-2.7,1.3-3.7,1.8c-1.3,0.7-1.3,0.8-1.8,0.9
		c-1.1,0.3-1.5,0-2.8,0c-1.1,0-1,0.3-3.7,0.9c-1.7,0.4-2.1,0.4-2.8,0.9c-0.1,0.1-1.1,1-0.9,1.8c0.2,0.8,1.2,0.8,2.8,1.8
		c1.6,1.1,1.1,1.6,2.8,2.8c0.7,0.5,2,1.3,3.7,1.8c1,0.3,1.8,0.5,1.8,0.9s-0.8,0.9-0.9,0.9c-1.2,0.6-2.6,0.3-3.7,0
		c-4.1-1.1-6.1-1.6-6.4-1.8c-2-1.5-1.7-2.9-3.7-3.7c-0.2-0.1-1.9-0.7-3.7,0c-1.1,0.4-1.6,1.2-2.8,2.8c-1.3,1.8-1.4,2.7-2.8,3.7
		c-0.8,0.6-1.2,0.9-1.8,0.9c-1.4,0-1.6-1.8-3.7-2.8c-1.3-0.6-1.7-0.2-2.8-0.9c-1-0.8-1-1.6-1.8-1.8c-0.9-0.3-1.5,0.4-2.8,0.9
		c-2.6,1.2-6,1-6.4,0c-0.2-0.5,0.4-1.4,0.9-1.8c0.9-0.7,1.5-0.3,2.8-0.9c0.4-0.2,1.4-0.7,1.8-1.8c0.3-0.7,0.1-1.4,0-1.8
		c-0.4-1.7-1.9-3.3-3.7-3.7c-0.8-0.2-0.8,0.1-1.8,0c-2.2-0.2-2.3-1.3-4.6-1.8c-1.8-0.4-2.7,0-3.7-0.9c-0.5-0.5-0.5-0.8-0.9-0.9
		c-0.9-0.2-1.3,1.5-2.8,1.8c-1,0.3-2.4-0.1-2.8-0.9c-0.6-1.4,2.5-3.3,1.8-4.6c-0.2-0.4-0.5-0.3-1.8-0.9c-1.1-0.5-2-1-2.8-1.8
		c-0.9-1-1.3-2.4-0.9-2.8c0.4-0.3,1.2,1,2.8,0.9C214,299.4,214.3,298.4,215.5,298.5z"/>
	<path d="M218.3,356.3"/>
	<path d="M226.6,326c-0.1,0-0.3,0-1.8,2.8c-1.2,2.1-1.3,2.5-1.8,2.8c-0.9,0.4-1.3-0.4-3.7-0.9c-2.3-0.5-2.4-0.3-3.7-0.9
		c0,0-1.2-0.6-2.8-1.8c0,0-2.9-2.4-3.7-1.8c-0.3,0.2-0.1,0.6,0,2.8c0.1,1.5,0.1,2.3,0,2.8c-0.2,1.1-1,0.9-2.8,2.8
		c-1.5,1.5-1.6,2.4-2.8,2.8c-0.7,0.2-1.4,0.1-1.8,0c-2.2-0.5-2.5-2.1-4.6-2.8c-1.2-0.4-2.3-0.1-2.8,0c-1.3,0.4-1.7,1-3.7,2.8
		c-1.8,1.6-2.8,2.4-3.7,2.8c-2.4,0.9-3.9-0.1-4.6,0.9c-0.6,0.9,0.4,1.7,0,3.7c-0.1,0.2-0.5,2-1.8,2.8c-1.1,0.6-2,0.2-3.7,0
		c-1.2-0.1-0.9,0.1-7.3,0.9c-1.8,0.2-3.7,0.7-5.5,0.9c-1.4,0.2-2.3,0.3-2.8,0.9c-0.6,0.9-0.3,2.2,0,3.7c0.2,0.7,0.2,0.7,0.9,2.8
		c0.7,2.2,0.7,2.2,0.9,2.8c0.6,1.5,1.5,2.3,2.8,3.7c3.4,3.7,5.1,5.5,5.5,7.3c0.3,1.5,0,2.5,0.9,3.7s2.3,1.7,2.8,1.8
		c1.2,0.4,1.9,0.2,4.6,0c2.5-0.1,3.7-0.2,4.6,0c2.5,0.6,2.8,1.9,4.6,1.8c1.3,0,1.5-0.7,3.7-1.8c0.1-0.1,2.6-1.3,5.5-1.8
		c3-0.5,2.9,0.4,6.4,0c3.1-0.3,3.7-1.1,6.4-0.9c1.2,0.1,2.4,0.2,3.7,0.9c1.5,0.8,1.6,1.7,2.8,1.8c1.7,0.2,2.6-1.4,3.7-0.9
		c1.2,0.5,0.5,2.5,1.8,3.7c1.7,1.4,4.7-0.3,5.5,0.9c0.4,0.6-0.4,1.3,0,1.8c0.7,1,3.5-1.1,5.5,0c1.2,0.6,0.7,1.6,1.8,2.8
		c1.3,1.3,3.9,1.2,9.2,0.9c3.4-0.2,5.1-0.6,6.4-0.9c1-0.3,1-0.4,2.8-0.9c4.4-1.4,5-1.1,6.4-1.8c2.8-1.4,2.3-3.1,5.5-6.4
		c3.6-3.6,5.5-2.8,7.3-5.5c1.8-2.6,2.3-6.8,0.9-10.1c-2.6-6-10.8-4.8-14.7-11.9c-2.1-3.8-2.8-5.5-2.8-5.5c-1.2-2.9-1.3-4.3-2.8-5.5
		c-1.6-1.3-2.5-0.6-3.7-1.8c-2-2.1-0.3-5.5-1.8-6.4c-1-0.6-2.7,0-3.7,0.9c-1.3,1.2-1,2.6-1.8,8.3c-0.5,3.1-0.8,4.4-1.8,5.5
		c-0.4,0.4-1.3,1.4-2.8,1.8c-2.2,0.7-3.7-0.4-11.9-4.6c-2.4-1.3-3.7-1.9-3.7-2.8c0.1-1.4,4.2-1.6,4.6-3.7c0.2-0.9-0.5-1.1-0.9-2.8
		C225.9,328.1,226.9,326.2,226.6,326z"/>
	<path d="M72.5,233.4c-0.4,0.2,0.6,1.7,0,3.7c-0.3,0.9-0.6,0.8-0.9,1.8c-0.4,1.2-0.2,2.1,0,3.7c0.2,1.6,0.4,2.6,0.9,2.8
		c0.7,0.2,1.7-1.6,1.8-1.8c0.7-1.2,0.8-2.4,0.9-3.7c0.1-1.3,0.2-1.9,0-2.8C74.7,234.8,72.9,233.2,72.5,233.4z"/>
	<path d="M310,341.6c-1.4-0.3-2.1-0.4-2.8,0c-0.6,0.4-1.1,1.2-0.9,1.8c0.4,1.1,2.7,0.2,4.6,1.8c1,0.9,1.1,1.8,1.8,1.8
		c0.8,0.1,1.7-0.9,1.8-1.8c0.2-1.4-1.3-2.4-1.8-2.8C312,342,311.3,341.9,310,341.6z"/>
	<path d="M319.2,368.2c-0.3,0-0.9,0.2-2.8,1.8c-1.8,1.7-2.7,2.5-2.8,3.7c0,0.7,0.3,1.7,0.9,1.8c0.9,0.3,1.6-1.6,3.7-2.8
		c1.7-1,2.9,0,3.7-0.9c0.6-0.7,0.6-1.9,0-2.8C321.1,368,319.4,368.2,319.2,368.2z"/>
	<path d="M310,376.5c-1-0.4-1.8,0.4-5.5,2.8c-3.6,2.3-5.4,3.4-6.4,3.7c-1.7,0.5-3.3,0.5-4.6,1.8c-0.3,0.3-1.1,1.2-0.9,1.8
		c0.5,1.5,5.8,1,6.4,0.9c1.4-0.1,11.8-1.3,12.8-6.4C312.2,379.2,311.4,377,310,376.5z"/>
	<path d="M175.2,291.2c0.6-0.3,1-0.1,2.8,0c1.6,0.1,1.6-0.1,2.8,0c2.2,0.2,2.1,0.9,3.7,0.9c1.3,0,1.5-0.4,4.6-0.9
		c1.4-0.2,1.8-0.2,1.8,0c0.2,0.4-1.2,1.4-1.8,1.8c-0.4,0.3-1,0.6-1.8,0.9c-1.9,0.6-3.7,0.2-4.6,0c-1.8-0.4-1.7-0.9-2.8-0.9
		s-1.5,0.5-3.7,0.9c-1.5,0.3-1.7,0.1-1.8,0C173.8,293.4,174.2,291.8,175.2,291.2z"/>
	<path d="M200,288.4c-0.8-0.3-2.2,0.6-2.8,1.8c-0.3,0.8-0.1,1.1,0,3.7c0,1,0,1.7,0,2.8c0,2.5-0.2,3.6,0,3.7c0.2,0,0.3-1.9,1.8-3.7
		c0.9-1.1,1.4-0.9,1.8-1.8c0.4-0.9,0.3-1.8,0-3.7C200.6,289.5,200.5,288.7,200,288.4z"/>
	<path d="M191.7,319.6c-2.9,1.6-2.7,1.1-3.7,1.8c-2.4,1.7-4,4.2-3.7,4.6c0.2,0.2,0.8-0.3,3.7-1.8c2-1,3-1.6,3.7-1.8
		c0.1-0.1,1.8-0.7,3.7-1.8c0.5-0.3,0.9-0.6,0.9-0.9c0-0.5-1-0.9-1.8-0.9C193.5,318.6,192.8,319.1,191.7,319.6z"/>
	<path d="M194.5,304.9c-0.5,0.2-1.2,0.9-0.9,1.8c0.3,0.8,1.2,1.1,1.8,0.9c0.5-0.2,0.8-0.7,0.9-0.9c0.3-0.6,0.4-1.6,0-1.8
		c-0.1-0.1-0.2,0-0.9,0C194.7,305,194.6,304.9,194.5,304.9z"/>
	<path d="M203.6,304c-1.8-0.7-4.4,0-4.6,0.9c-0.1,0.6,0.8,1.6,1.8,1.8c1.5,0.3,2.3-1.3,3.7-0.9c0.9,0.3,1.1,1,1.8,0.9
		c0.5-0.1,1-0.6,0.9-0.9c-0.1-0.4-0.7-0.4-1.8-0.9C204.3,304.5,204.2,304.3,203.6,304z"/>
	<path d="M220.1,313.2c-0.5,0-1.1,1.4-0.9,2.8c0.1,0.7,0.4,1.8,0.9,1.8c0.4,0,0.8-0.6,0.9-0.9c0.3-0.6,0.1-1.2,0-1.8
		C220.9,314.6,220.6,313.2,220.1,313.2z"/>
	<path d="M176.1,318.7c-0.5,0.1-0.6,0.5-0.9,0.9c-0.9,1.3-1.9,1.3-1.8,1.8c0.1,0.7,1.7,1.4,2.8,0.9c0.3-0.1,0.5-0.4,0.9-0.9
		c0.2-0.3,0.7-0.9,0.9-1.8c0.1-0.4,0.2-0.8,0-0.9c-0.1-0.1-0.3,0-0.9,0C176.4,318.7,176.4,318.6,176.1,318.7z"/>
	<path d="M346.7,323.3c-0.1-0.1-0.9,0.6-2.8,1.8c-0.5,0.3-0.8,0.5-0.9,0.9c-0.2,0.7,0.3,1.7,0.9,1.8c0.8,0.2,1.7-0.9,1.8-1.8
		c0.1-0.4-0.1-0.5,0-0.9C345.9,324,346.8,323.4,346.7,323.3z"/>
	<path d="M350.4,319.6c-0.5-0.4-1.5-0.4-1.8,0c-0.1,0.2-0.1,0.5,0,0.9c0.4,1.8,0.6,2.7,0.9,2.8c0.4,0.1,0.8-0.7,0.9-0.9
		C350.8,321.6,351.1,320.3,350.4,319.6z"/>
	<path d="M389.8,183.9c-0.5-0.4-1.3-1.1-1.8-0.9c-1.2,0.4-0.8,5.4,0,5.5c0.4,0.1,0.5-0.9,1.8-1.8c0.3-0.2,0.7-0.4,0.9-0.9
		c0.2-0.4,0-0.9,0-0.9C390.6,184.5,390.3,184.3,389.8,183.9z"/>
	<path d="M304.5,314.1c-0.7-0.3-1.4,1.1-2.8,0.9c-1-0.2-1.5-1.1-1.8-0.9c-0.2,0.1-0.2,0.6,0,0.9c0.4,0.7,1.5,0.3,1.8,0.9
		c0.4,0.6-0.4,1.5,0,1.8c0.1,0.1,0.2,0,0.9,0c0.5,0,0.7,0,0.9,0c0.6,0.1,0.7,0.6,1.8,1.8c0.5,0.6,0.8,1,0.9,0.9
		c0.2-0.1-0.5-1.2-0.9-2.8C304.8,315.5,305.1,314.4,304.5,314.1z"/>
	<path d="M288,308.6c-0.6-0.5-1.2-1.1-1.8-0.9c-0.9,0.2-1.5,2-0.9,2.8c0.4,0.6,1.2,0.2,1.8,0.9c0.7,0.7,0.4,1.6,0.9,1.8
		c0.5,0.3,1.5-0.2,1.8-0.9C290.5,310.8,288.3,308.8,288,308.6z"/>
	<path d="M318.3,326c-0.7,0-1.4,0.3-1.8,0.9c-0.6,0.9-0.5,2.1,0,2.8c0.4,0.5,0.6,0.2,1.8,0.9c1,0.6,1.3,1,1.8,0.9
		c0.6-0.1,0.9-0.8,0.9-0.9C321.7,329,320.1,326.1,318.3,326z"/>
	<path d="M172.4,259.1c-2.4,4.2-2.4,4.3-2.8,4.6c-1.5,1.2-3,0.5-3.7,1.8c-0.3,0.6-0.4,1.4,0,1.8c0.7,0.7,2.6-0.2,3.7-0.9
		c1.5-1,1-1.5,3.7-4.6c0.4-0.4,0.9-1,0.9-1.8c0-0.8-0.4-1.8-0.9-1.8C173,258.2,172.7,258.7,172.4,259.1z"/>
	<path d="M211,316.9c-0.5,0-0.8,0.7-0.9,0.9c-0.1,0.3-0.6,1.2,0,1.8c0.5,0.5,1.4,0.5,1.8,0c0.6-0.6,0.1-1.5,0-1.8
		C211.8,317.6,211.5,316.9,211,316.9z"/>
	<path d="M254.1,387.5c-1-0.5-1.7,0.7-3.7,0.9c-1.6,0.2-2.5-0.4-2.8,0s0.4,1.3,0.9,1.8c1,0.9,2.3,0.9,2.8,0.9c1.2,0,3.4-0.5,3.7-1.8
		C255.1,388.7,254.7,387.8,254.1,387.5z"/>
	<path d="M491.8,94c4.3,0.5,8.5,0.9,12.6,1.5c10.2,1.6,16.7,4.4,19,16.4c0.5,2.6,0.9,5.4,0.9,8c0.1,72.9,0.1,145.9,0,218.8
		c0,4.1-0.6,8.4-1.6,12.4c-1.4,5.9-4.9,10.4-11.3,11.4c-5.8,1-11.7,1.4-17.5,2.1c-0.7,0.1-1.3,0.5-2.4,1c0.2,2.1,0.4,4.1,0.6,6
		c17.5,1.6,100.7,0.9,103-1.1c-0.1-1.6-0.3-3.4-0.5-6.3c-4,0-7.7,0.2-11.3,0c-13.2-0.8-20.7-7.5-21.1-19.1
		c-0.2-5.4-1.1-10.8-1.1-16.2c0-68.2,0-136.5,0.1-204.7c0-4.7,0.5-9.4,1.5-14c1.5-6.7,5.4-11.8,12.5-13.2c5-1,10.3-1.3,15.3-2.1
		c4.8-0.8,4.9-1.3,3.4-7c-34,0-68,0-102.1,0C491.8,90.1,491.8,91.8,491.8,94z"/>
	<path d="M849.7,216c-1.5,4.5,0.5,5.4,3.9,5.4c8.4-0.1,16.8,0,25.2,0c7.7,0.1,15.2,1.7,22.2,4.9c8.5,3.9,12,10.1,9.5,19.2
		c-2.2,7.8-4.9,15.5-8,23c-19.7,47.2-39.5,94.4-59.3,141.5c-4.6,10.9-8.8,22-15.5,32c-6.7,9.9-14.1,18.5-26.4,21.3
		c-1.6,0.4-3.2,0.8-5.2,1.4c0.2,2.2,0.4,4,0.7,6.3c14.3,0,28.1-0.2,41.9,0.1c4.6,0.1,7-1.4,8.8-5.8c9.2-22.4,18.6-44.7,28.2-67
		c18.2-42.2,36.5-84.4,54.9-126.5c4.7-10.6,9.7-21.1,15.1-31.4c6.6-12.5,16.5-20.1,31.6-19.1c5.4,0.3,10.9,0,16.3-0.1
		c0.7,0,1.4-0.5,2.1-0.7c0-1.4,0-2.8,0-4.6C946.9,216,898.5,216,849.7,216z"/>
	<path d="M1594.7,329.2c-0.9,0.4-1.4,0.6-1.7,0.9c-2,2.2-3.9,4.5-5.8,6.7c-17.4,20.4-39.1,29.5-65.9,24.2
		c-19.5-3.9-33.9-14.5-41.2-33.4c-8.8-22.8-10.3-46.1-4.7-69.8c2.7-11.4,7.3-21.9,15.8-30.5c19.7-19.7,51-18.9,66.3,2.5
		c8.8,12.4,11.6,26.5,11,41.5c0,0.6-0.7,1.3-1.5,2.6c-12.7,0-25.7,0-38.6,0c-0.3,1.5-0.6,2.2-0.6,2.9c0,0.7,0.2,1.4,0.4,2.4
		c23.1,0,46.2,0,70.1,0c-1-7.5-1.2-14.4-2.8-21.1c-5.2-22.4-19-37.7-40.4-45.7c-13.8-5.1-28.2-6.3-43-4.3
		c-24.1,3.2-43.6,13.9-56.5,34.9c-11.4,18.5-16,38.7-13.3,60.4c3,24.8,15.1,44.1,36.4,57.3c11.6,7.2,24.9,9.5,38.1,10.9
		c12.2,1.3,24.6,1.3,36.7-2.5c19.8-6.2,34.4-18.9,45.7-35.8c0.2-0.3,0.2-0.9,0.3-1.6C1597.9,330.8,1596.2,330,1594.7,329.2z"/>
	<path d="M1085.1,147.6c5.8,0.4,10.7,0.7,15.5,1.2c8.1,0.8,13,5.6,14.1,13.7c0.4,2.9,0.7,5.9,0.7,8.9c0,18-0.3,36.1-0.3,54.1
		c0,46.7,0,93.4,0,140.1c0,1.9,0.3,3.8,0.4,6.1c16.5,0,32.7,0,49.1,0c0-3.1,0-5.7,0-8.5c-2.8-0.3-5.3-0.4-7.6-0.9
		c-9-1.9-13-5.7-13.9-13.9c-0.8-7.8-1.5-15.8-1.5-23.6c0.2-27.9,0.8-55.8,1.1-83.7c0.2-24.2,0.2-48.4,0.2-72.7
		c0-4.6,0.7-8.8,3.7-12.5c3.8-4.7,8.8-7,14.9-7s12.1,0,18.1,0c0.5-3.2,0.2-5-2.5-5.2c-1.2-0.1-2.5-0.1-3.7-0.1c-27.2,0-54.4,0-81.6,0
		c-1.5,0-3.1-0.2-4.4,0.4C1086.4,144.2,1086.1,145.8,1085.1,147.6z"/>
	<path d="M571.6,332.6c0.5,0.1,1,0.2,1.5,0.3c1.1-1.4,2.3-2.6,3.2-4.1c23.5-37.7,47-75.4,70.3-113.3c18-29.2,35.7-58.6,53.6-87.9
		c1.8-2.9,3.8-5.9,6.4-8.1c12.9-11.1,27.2-19.7,43.9-23.6c3.1-0.7,6.2-1,9.9-1.5c-0.2-2.6-0.4-4.6-0.6-6.6c-33.3,0-65.8,0-98.7,0
		c0,2.2,0,4.1,0,5.9c4.1,0.6,7.7,1.1,11.3,1.8c5.9,1.1,8.8,4.2,8.7,10c0,3.2-0.5,6.5-1.6,9.4c-2.7,7.2-5.3,14.4-9,21.1
		c-13.4,24.2-27.2,48.2-40.9,72.2c-18.5,32.4-37.1,64.7-55.6,97.1c-1.1,1.9-2.4,4-2.5,6.1C571.4,318.4,571.6,325.5,571.6,332.6z"/>
	<path d="M771.4,372.1c1.4-3.7,1-5.7-2.3-6.4c-1.9-0.4-3.8-1-5.7-1.5c-12.2-2.7-22.4-8.6-30.7-18.1c-24.5-27.9-45.8-58.2-68-87.9
		c-5.7-7.7-11.4-15.3-17.7-23.8c-6.8,10.6-13.1,20.5-19.2,30c2.9,4.2,5.3,7.9,7.9,11.5c21.8,30.6,43.7,61.1,65.4,91.7
		c2.5,3.5,5.3,4.5,9.4,4.5c17.3-0.2,34.6-0.1,51.9-0.1C765.2,372.1,768.1,372.1,771.4,372.1z"/>
	<path d="M1810.4,370.2c-3.4-3-6.7-3.1-9.6-3.8c-7.9-1.9-14.8-5.7-20.1-11.9c-3.2-3.7-6.1-7.8-9.1-11.7c-14.6-19.3-29.1-38.7-43.8-58
		c-11.4-14.9-23-29.7-34.5-44.6c-3-3.8-5.8-8-3.5-12.9c2.2-4.6,6.6-6.5,11.7-6.2c0.5,0,1.1,0.2,1.5-0.1c1.1-0.7,2.9-1.4,3-2.3
		c0.4-2.3-1.5-2.7-3.4-2.7c-0.5,0-1,0-1.5,0c-22,0-44,0-66.1,0.1c-1.6,0-4.4,1.1-4.6,2.1c-0.7,2.8,1.9,2.7,3.9,3
		c12.6,1.9,21.4,9.6,28.9,19.1c4.6,5.8,8.9,11.8,13.4,17.7c22.4,29.2,44.9,58.4,67.2,87.7c1.9,2.5,3.5,5.4,4.7,8.4
		c2.2,5.6,0.3,9.9-5.4,11.7c-3.5,1.1-7.3,1.2-10.9,2c-1.1,0.2-2,1.4-3.3,2.4C1735.8,372.7,1803.3,372.7,1810.4,370.2z"/>
	<path d="M1106.2,338.3c-1.8,2.4-3.2,4-4.4,5.7c-7.2,10.5-16.8,17.5-29.4,19.5c-13.2,2.2-26.1,1.6-37-7.9
		c-7.7-6.7-12.4-15.3-15.5-24.8c-3.9-12.3-5.4-25.1-5.8-37.9c-0.5-18.2,1-36.1,8.6-52.9c7.5-16.5,19.3-27.3,38.4-27.9
		c17.5-0.6,31.9,5.4,41.8,20.5c0.8,1.3,2,2.3,3.9,4.6c0-4.5-0.2-7.4,0-10.4c0.4-4.4-1.2-7.2-5.1-9.7c-15.4-9.9-31.8-13.3-50.1-10.6
		c-21,3.1-37.7,12.5-50.3,29.3c-13.7,18.3-19.4,39.1-18.5,61.9c0.6,17.4,5.9,32.9,16.5,46.6c24.6,31.9,71.1,36.9,100.5,13.6
		C1106.6,352.5,1107.9,346.8,1106.2,338.3z"/>
	<path d="M1434.5,363.3c-7.3-0.8-13.9-1.5-20.4-2.3c-6-0.7-10.1-4.2-11.8-9.8c-1.1-4-1.6-8.2-1.6-12.4c0.4-58.1,0.8-116.2,1.3-174.3
		c0-3.4-0.4-7.2,0.9-10.2c1.1-2.8,4.2-4.7,7.2-7.8c-17.9-0.1-35.1-0.5-52.3,1.2c3.5,1,7,1,10.6,1c11,0.1,13,2.2,13.1,13
		c0,1.7,0,3.5,0,5.2c0,43.8,0,87.5,0.1,131.3c0,15.6,0.1,31.2,0,46.7c0,8.6-3.4,13.2-11.6,16c-2.5,0.9-5.3,1.1-7.9,1.8
		c-2.1,0.5-4.2,1.1-6.3,1.7c0,2.7,0,4.8,0,6.8c8.1,1.5,72.9,1.2,78.7-0.3C1434.5,368.5,1434.5,366.2,1434.5,363.3z"/>
	<path d="M1275.6,371.6c1.6,0.1,2.8,0.3,4,0.2c28.6-1.8,50.3-14.9,64.1-40.1c9.7-17.7,11.7-36.9,8.8-56.8
		c-4.2-28.4-19.3-48.8-45.3-60.7c-9.8-4.5-20.3-7.3-31.5-6.2c0.2,4.8,0.1,4.9,4.5,6c16.5,4,27.1,14.6,33.7,29.7
		c5.3,12.1,7.8,24.7,8.9,38c1.4,17.7-0.4,34.5-7.8,50.6c-7.6,16.5-17.7,30.4-37.1,34.1C1275.1,367,1274.7,368.7,1275.6,371.6z"/>
	<path d="M1260.8,208.5c-2.1-0.2-3-0.5-4-0.5c-12.7,0.3-24.2,4.4-35.1,10.5c-19.9,11.3-33.3,27.6-37.3,50.7
		c-0.7,4.1-1.6,8.2-2.1,12.4c-2.4,18.9,0.2,36.9,9.5,53.7c10.8,19.4,28.2,29.8,49.2,35c6.2,1.5,12.4,2.8,18.7,1.2
		c1.3-3.7-0.6-4.5-3.5-5.1c-9.8-1.9-17.7-7-24.2-14.7c-7-8.3-11.3-17.9-14.5-28.1c-5.3-16.7-6.8-33.7-4.8-51.2
		c1.6-14,5.7-27,13.6-38.7c6.6-9.7,15.6-16.3,27.1-19.4c1.7-0.4,3.5-0.7,4.9-1.6C1259.4,212,1259.8,210.3,1260.8,208.5z"/>
	<path d="M732.1,216c0,0.3,0,0.6,0.1,1c0.9,0.1,1.8,0.4,2.8,0.4c11.6,0.4,20.2,5.4,25.7,15.8c4,7.6,8.2,15.2,12.7,22.6
		c19.7,32.3,39.4,64.5,59.2,96.7c3.1,5,6.4,9.8,10.2,15.6c2-4.2,3.3-7.6,5.2-10.7c3.7-6,2.6-11-1.2-17c-18.3-29-36.2-58.4-54-87.7
		c-2.8-4.6-5-9.7-6.5-14.8c-2.5-8.6,2.2-15,11.2-16.4c2.4-0.4,4.9-0.4,7.4-0.7c2.6-0.4,3-2.1,1.9-4.7C781.9,216,757,216,732.1,216z"
		/>
	<path d="M620.9,204.8c-16.8-20.6-33.1-40.6-50.2-61.6c-0.4,2.4-0.7,3.3-0.7,4.1c0,12.6-0.2,25.2,0,37.8c0,2.3,0.9,4.9,2.2,6.8
		c7.6,11.2,15.5,22.3,23.3,33.4c2.2,3.1,4.5,6.2,7.3,10C609.1,224.7,614.8,215,620.9,204.8z"/>
	<path d="M1736.5,276.7c5-5.7,9.9-10.9,14.3-16.5c14-17.8,27.6-35.9,52.3-39.3c0.7-0.1,1.5-1.7,1.7-2.7c0.1-0.6-1.1-1.7-1.8-1.8
		c-1.4-0.3-2.9-0.2-4.4-0.2c-18.3,0-36.6,0-54.8,0c-1.2,0-2.6-0.2-3.7,0.2c-0.9,0.3-2.2,1.4-2.3,2.2c-0.1,0.8,1,2.2,1.9,2.5
		c1.3,0.5,2.9,0.2,4.4,0.4c11.8,1.2,15.3,7.8,10.1,18.5c-0.4,0.9-0.9,1.8-1.4,2.6c-3.1,4.2-6.2,8.3-9.3,12.4c-4,5.3-8,10.5-12.2,15.9
		C1733,272.9,1734.5,274.5,1736.5,276.7z"/>
	<path d="M1703.5,312.2c-2.2-2.5-3.7-4.3-5.8-6.7c-2.1,2.5-3.8,4.5-5.5,6.6c-9.3,11.5-18.4,23.2-28.1,34.4c-9.6,11-21,19.4-36,21.6
		c-0.9,0.1-1.7,1.2-3.4,2.3c6.5,3.1,12.4,1.4,18,1.7c5.7,0.3,11.3,0.1,17,0.1c5.9,0,11.9,0.2,17.8-0.1c5.7-0.2,11.5,1.2,18.1-1.5
		c-1.6-1.3-2.4-2.2-3.3-2.5c-2.1-0.7-4.3-0.9-6.5-1.5c-10.9-3-14.4-12.9-7.7-21.7C1686.4,334,1694.8,323.4,1703.5,312.2z"/>
	<text transform="matrix(1 0 0 1 1863.8031 382.0497)" class="st0 st1">©︎</text>
</svg>
